<?xml version="1.0" encoding="UTF-8"?>
<svg width="350px" height="350px" viewBox="0 0 350 350" version="1.1" xmlns="http://www.w3.org/2000/svg" xmlns:xlink="http://www.w3.org/1999/xlink">
    <!-- Generator: Sketch 44.1 (41455) - http://www.bohemiancoding.com/sketch -->
    <title>Slice</title>
    <desc>Created with Sketch.</desc>
    <defs>
        <path d="M191.975784,357.38105 C277.027636,357.38105 345.975784,288.432902 345.975784,203.38105 C345.975784,118.329199 268.975784,49.3810501 191.975784,49.3810501 L191.975784,357.38105 Z M191.975784,253.147763 L74.6070991,370.516448 L191.975784,253.147763 C191.975784,194.182862 191.975784,120.316119 191.975784,85.3810501 C249.975784,85.3810501 307.975784,137.763734 307.975784,202.38105 C307.975784,266.998366 256.040815,319.38105 191.975784,319.38105 C191.975784,303.794221 191.975784,280.018295 191.975784,253.147763 Z M191.975784,253.147763 C191.975784,253.147763 191.975784,253.147763 191.975784,253.147763 L241.607099,203.516448 L191.975784,253.147763 Z" id="path-1"></path>
    </defs>
    <g id="Logomark" stroke="none" stroke-width="1" fill="none" fill-rule="evenodd">
        <g id="Group" transform="translate(-49.000000, -22.000000)">
            <path d="M105.888,51.368 L204.096,51.368 C226.752113,51.368 243.743943,56.263951 255.072,66.056 C266.400057,75.848049 272.064,89.4799126 272.064,106.952 C272.064,116.744049 270.624014,124.855968 267.744,131.288 C264.863986,137.720032 261.504019,142.90398 257.664,146.84 C253.823981,150.77602 250.032019,153.607991 246.288,155.336 C242.543981,157.064009 239.808009,158.215997 238.08,158.792 L238.08,159.368 C241.152015,159.752002 244.463982,160.711992 248.016,162.248 C251.568018,163.784008 254.879985,166.231983 257.952,169.592 C261.024015,172.952017 263.56799,177.319973 265.584,182.696 C267.60001,188.072027 268.608,194.79196 268.608,202.856 C268.608,214.95206 269.519991,225.943951 271.344,235.832 C273.168009,245.720049 275.999981,252.775979 279.84,257 L241.248,257 C238.559987,252.583978 236.976002,247.688027 236.496,242.312 C236.015998,236.935973 235.776,231.752025 235.776,226.76 C235.776,217.351953 235.200006,209.240034 234.048,202.424 C232.895994,195.607966 230.784015,189.944023 227.712,185.432 C224.639985,180.919977 220.464026,177.608011 215.184,175.496 C209.903974,173.383989 203.136041,172.328 194.88,172.328 L141.888,172.328 L141.888,257 L105.888,257 L105.888,51.368 Z M141.888,144.968 L200.928,144.968 C212.448058,144.968 221.18397,142.232027 227.136,136.76 C233.08803,131.287973 236.064,123.080055 236.064,112.136 C236.064,105.607967 235.10401,100.280021 233.184,96.152 C231.26399,92.0239794 228.624017,88.8080115 225.264,86.504 C221.903983,84.1999885 218.064022,82.6640038 213.744,81.896 C209.423978,81.1279962 204.960023,80.744 200.352,80.744 L141.888,80.744 L141.888,144.968 Z" id="R" fill="#000000"></path>
            <mask id="mask-2" fill="white">
                <use xlink:href="#path-1"></use>
            </mask>
            <use id="Oval" fill="#000000" transform="translate(210.041442, 210.198749) rotate(45.000000) translate(-210.041442, -210.198749) " xlink:href="#path-1"></use>
        </g>
    </g>
</svg>