<svg width="350" height="350" viewBox="0 0 350 350" fill="none" xmlns="http://www.w3.org/2000/svg">
<rect width="350" height="350" fill="white"/>
<path d="M115.888 59.744V123.968H174.928C198.352 123.968 210.064 113.024 210.064 91.136C210.064 70.208 198.16 59.744 174.352 59.744H115.888ZM79.888 236V30.368H178.096C200.368 30.368 217.264 35.264 228.784 45.056C240.304 54.656 246.064 68.288 246.064 85.952C246.064 112.64 234.736 129.92 212.08 137.792V138.368C232.432 141.248 242.608 155.744 242.608 181.856C242.608 209.888 246.352 227.936 253.84 236H215.248C211.6 230.048 209.776 219.968 209.776 205.76C209.776 185.984 207.088 172.16 201.712 164.288C195.76 155.648 184.816 151.328 168.88 151.328H115.888V236H79.888Z" fill="#6FDCFF"/>
<path fill-rule="evenodd" clip-rule="evenodd" d="M67.1935 282.498C127.334 342.639 224.842 342.639 284.982 282.498C345.123 222.357 339.43 119.156 284.982 64.7091L67.1935 282.498ZM94.0635 255.628C139.364 300.929 213.128 300.612 258.819 254.921C304.511 209.229 300.539 131.177 259.527 90.165C223.567 126.125 129.271 220.421 94.0635 255.628Z" fill="#FFAEC6"/>
<mask id="mask0" mask-type="alpha" maskUnits="userSpaceOnUse" x="67" y="64" width="327" height="328">
<path fill-rule="evenodd" clip-rule="evenodd" d="M67.1935 282.498C127.334 342.639 224.842 342.639 284.982 282.498C345.123 222.357 339.43 119.156 284.982 64.7091L67.1935 282.498ZM94.0635 255.628C139.364 300.929 213.128 300.612 258.819 254.921C304.511 209.229 300.539 131.177 259.527 90.165C223.567 126.125 129.271 220.421 94.0635 255.628Z" fill="white"/>
</mask>
<g mask="url(#mask0)">
</g>
</svg>
